<svg xmlns="http://www.w3.org/2000/svg" width="3000" height="3000" viewBox="0 0 3000 3000"><path d="M1677.4,918.5c-19.1,1.1-37,8.4-55.8,10.8" style="fill:none;stroke:#000;stroke-linecap:round;stroke-linejoin:round;stroke-width:2.14463371038437px"/><path d="M738,1825.7c.5,19.2,10.6,36.5,10.7,55.8" style="fill:none;stroke:#000;stroke-linecap:round;stroke-linejoin:round;stroke-width:2.14463371038437px"/><path d="M1883.2,706.2c-5.1,18.9-19.3,33.2-25.7,51.5" style="fill:none;stroke:#000;stroke-linecap:round;stroke-linejoin:round;stroke-width:2.14463371038437px"/><path d="M1685.9,1126.6c-18.2,6.3-32.6,20.6-51.4,25.7" style="fill:none;stroke:#000;stroke-linecap:round;stroke-linejoin:round;stroke-width:2.14463371038437px"/><path d="M2243.5,2522.7h-51.4" style="fill:none;stroke:#000;stroke-linecap:round;stroke-linejoin:round;stroke-width:2.14463371038437px"/><path d="M493.5,894.9c-14,13.8-18,33.2-27.9,49.4" style="fill:none;stroke:#000;stroke-linecap:round;stroke-linejoin:round;stroke-width:2.14463371038437px"/><path d="M495.7,1819.3l27.8,49.3" style="fill:none;stroke:#000;stroke-linecap:round;stroke-linejoin:round;stroke-width:2.14463371038437px"/><path d="M-10.5,1561.9c7.9,16.5,15.8,32.9,23.6,49.4" style="fill:none;stroke:#000;stroke-linecap:round;stroke-linejoin:round;stroke-width:2.14463371038437px"/><path d="M1098.3,243c10.7,16.8,29.1,25.1,42.9,38.6" style="fill:none;stroke:#000;stroke-linecap:round;stroke-linejoin:round;stroke-width:2.14463371038437px"/><path d="M107.5,1392.5c15.8,11.6,28.3,26.3,38.6,42.9" style="fill:none;stroke:#000;stroke-linecap:round;stroke-linejoin:round;stroke-width:2.14463371038437px"/><path d="M907.4,326.6c11.8,12.8,17.3,30.5,32.2,40.8" style="fill:none;stroke:#000;stroke-linecap:round;stroke-linejoin:round;stroke-width:2.14463371038437px"/><path d="M450.6,1662.7c-10.3,15.8-28.4,22.9-40.7,36.5" style="fill:none;stroke:#000;stroke-linecap:round;stroke-linejoin:round;stroke-width:2.14463371038437px"/><path d="M1683.8,644c-12.8,13-26.5,25.2-36.5,40.8" style="fill:none;stroke:#000;stroke-linecap:round;stroke-linejoin:round;stroke-width:2.14463371038437px"/><path d="M367,729.8l-30,34.3" style="fill:none;stroke:#000;stroke-linecap:round;stroke-linejoin:round;stroke-width:2.14463371038437px"/><path d="M86,1272.4l-30,12.9" style="fill:none;stroke:#000;stroke-linecap:round;stroke-linejoin:round;stroke-width:2.14463371038437px"/><path d="M1372.8,2666.4c-6.3,9-15.8,17.1-8.6,30" style="fill:none;stroke:#000;stroke-linecap:round;stroke-linejoin:round;stroke-width:2.14463371038437px"/><path d="M1248.4,438.1h-30" style="fill:none;stroke:#000;stroke-linecap:round;stroke-linejoin:round;stroke-width:2.14463371038437px"/><path d="M2220,1248.8l-10.8,27.9" style="fill:none;stroke:#000;stroke-linecap:round;stroke-linejoin:round;stroke-width:2.14463371038437px"/><path d="M467.8,1302.4c3.7,9,.8,19.4,6.4,27.9" style="fill:none;stroke:#000;stroke-linecap:round;stroke-linejoin:round;stroke-width:2.14463371038437px"/><path d="M2481.6,1965.1c-8.5,5.7-18.9,2.8-27.9,6.5" style="fill:none;stroke:#000;stroke-linecap:round;stroke-linejoin:round;stroke-width:2.14463371038437px"/><path d="M620.1,867.1c4.8,8.8,8.9,17.9,10.7,27.8" style="fill:none;stroke:#000;stroke-linecap:round;stroke-linejoin:round;stroke-width:2.14463371038437px"/><path d="M2837.6,2123.8c-8.8-4.6-18.3-4.6-27.9-4.3" style="fill:none;stroke:#000;stroke-linecap:round;stroke-linejoin:round;stroke-width:2.14463371038437px"/><path d="M13.1,633.3c-3.6,8.9-.7,19.4-6.4,27.9" style="fill:none;stroke:#000;stroke-linecap:round;stroke-linejoin:round;stroke-width:2.14463371038437px"/><path d="M712.3,620.4c3.2,10.8,7.5,20.5,21.4,19.3" style="fill:none;stroke:#000;stroke-linecap:round;stroke-linejoin:round;stroke-width:2.14463371038437px"/><path d="M815.2,2705c-3.4,10.3-9.4,17-21.4,15" style="fill:none;stroke:#000;stroke-linecap:round;stroke-linejoin:round;stroke-width:2.14463371038437px"/><path d="M2651,2136.7c-9.1,1.8-16.6-6.1-25.7-4.3" style="fill:none;stroke:#000;stroke-linecap:round;stroke-linejoin:round;stroke-width:2.14463371038437px"/><path d="M1415.7,629a61.2,61.2,0,0,1-21.4,21.5" style="fill:none;stroke:#000;stroke-linecap:round;stroke-linejoin:round;stroke-width:2.14463371038437px"/><path d="M2545.9,884.2c-5-7.2-7.1-17.8-19.3-17.1" style="fill:none;stroke:#000;stroke-linecap:round;stroke-linejoin:round;stroke-width:2.14463371038437px"/><path d="M1038.3,1637c2.7,10.9,12.9,15.7,19.3,23.6" style="fill:none;stroke:#000;stroke-linecap:round;stroke-linejoin:round;stroke-width:2.14463371038437px"/><path d="M2672.5,2291.1c-8.4-1.1-16,1.4-23.6,4.3" style="fill:none;stroke:#000;stroke-linecap:round;stroke-linejoin:round;stroke-width:2.14463371038437px"/><path d="M1034,1358.2c8.1,4.9,11,12.4,10.7,21.4" style="fill:none;stroke:#000;stroke-linecap:round;stroke-linejoin:round;stroke-width:2.14463371038437px"/><path d="M1128.3,637.6l-23.6,10.7" style="fill:none;stroke:#000;stroke-linecap:round;stroke-linejoin:round;stroke-width:2.14463371038437px"/><path d="M733.7,650.5l23.6,10.7" style="fill:none;stroke:#000;stroke-linecap:round;stroke-linejoin:round;stroke-width:2.14463371038437px"/><path d="M2522.3,2280.4c2,9.5,15.2,7.7,17.2,17.1" style="fill:none;stroke:#000;stroke-linecap:round;stroke-linejoin:round;stroke-width:2.14463371038437px"/><path d="M849.5,907.8c9.4,2.9,12.1,14.3,21.5,17.2" style="fill:none;stroke:#000;stroke-linecap:round;stroke-linejoin:round;stroke-width:2.14463371038437px"/><path d="M341.3,2539.9a28,28,0,0,0-17.2,17.1" style="fill:none;stroke:#000;stroke-linecap:round;stroke-linejoin:round;stroke-width:2.14463371038437px"/><path d="M2352.9,2192.4c7.4,4,15.5,6.7,21.5,12.9" style="fill:none;stroke:#000;stroke-linecap:round;stroke-linejoin:round;stroke-width:2.14463371038437px"/><path d="M2552.4,1401.1c3.2,5.5,1.5,13.5,8.6,17.1" style="fill:none;stroke:#000;stroke-linecap:round;stroke-linejoin:round;stroke-width:2.14463371038437px"/><path d="M1981.9,586.1c4.4,5.5,15.7-2.7,17.2,8.6" style="fill:none;stroke:#000;stroke-linecap:round;stroke-linejoin:round;stroke-width:2.14463371038437px"/><path d="M690.8,1478.3c2,7.3,5.3,13.9,10.8,19.3" style="fill:none;stroke:#000;stroke-linecap:round;stroke-linejoin:round;stroke-width:2.14463371038437px"/><path d="M2089.1,358.8c-11.3,1.5-3,12.8-8.5,17.1" style="fill:none;stroke:#000;stroke-linecap:round;stroke-linejoin:round;stroke-width:2.14463371038437px"/><path d="M1070.4,676.2c1.3,7-2.7,12.9-4.3,19.3" style="fill:none;stroke:#000;stroke-linecap:round;stroke-linejoin:round;stroke-width:2.14463371038437px"/><path d="M223.3,2889.5l19.3,10.7" style="fill:none;stroke:#000;stroke-linecap:round;stroke-linejoin:round;stroke-width:2.14463371038437px"/><path d="M2393.7,1808.6c-5.9-1.1-10.8-5.4-17.2-4.3" style="fill:none;stroke:#000;stroke-linecap:round;stroke-linejoin:round;stroke-width:2.14463371038437px"/><path d="M94.6,19.9c5,4.5,12.2-.2,17.2,4.3" style="fill:none;stroke:#000;stroke-linecap:round;stroke-linejoin:round;stroke-width:2.14463371038437px"/><path d="M712.3,2005.9c4.5,4.9-.2,12.2,4.3,17.1" style="fill:none;stroke:#000;stroke-linecap:round;stroke-linejoin:round;stroke-width:2.14463371038437px"/><path d="M1012.5,197.9c12.3-12.5,16.8,6,25.8,6.5" style="fill:none;stroke:#000;stroke-linecap:round;stroke-linejoin:round;stroke-width:2.14463371038437px"/><path d="M2288.6,491.8l2.1,17.1" style="fill:none;stroke:#000;stroke-linecap:round;stroke-linejoin:round;stroke-width:2.14463371038437px"/><path d="M836.7,230.1c-3.1,4.2-.6,12-8.6,12.9" style="fill:none;stroke:#000;stroke-linecap:round;stroke-linejoin:round;stroke-width:2.14463371038437px"/><path d="M1244.1,453.2c-.5,7.1-10.1,7.8-10.7,15" style="fill:none;stroke:#000;stroke-linecap:round;stroke-linejoin:round;stroke-width:2.14463371038437px"/></svg>