<svg xmlns="http://www.w3.org/2000/svg" xmlns:xlink="http://www.w3.org/1999/xlink" width="1000" height="1000" viewBox="0 0 1000 1000"><defs><clipPath id="a"><rect y="2" width="1000" height="1000" style="fill:none"/></clipPath><clipPath id="b"><rect y="-1096.8" width="1000" height="1000" style="fill:none"/></clipPath></defs><rect width="1000" height="1000" style="fill:#333"/><g style="clip-path:url(#a)"><rect x="-1042.5" y="-613.2" width="3015.1" height="2507.28" style="fill:none"/><path d="M200.1,285.3S82.6,283,193.4,129.2L877.5,433.5s86.9,28.8,79,156L512.6,434.9S346,373.6,304.4,287.9c0,0-84.1,107-59.3,185.8s71.5,110.4,155-22.8L938.8,620.7s-8.8,88-133.2,102.4L575,674.4,430.2,922.5,657.5,998l-57.7,54.7-352.3-52.6L468.9,611.4l-51.2,27.7-177.4-39S94.1,553,166.7,343.8Z" style="fill:#fff"/></g><g style="clip-path:url(#b)"><rect x="-1042.5" y="-1712" width="3015.1" height="2507.28" style="fill:none"/></g></svg>