<svg xmlns="http://www.w3.org/2000/svg" xmlns:xlink="http://www.w3.org/1999/xlink" width="1000" height="1000" viewBox="0 0 1000 1000"><defs><clipPath id="a"><rect x="1056.5" y="2" width="1000" height="1000" style="fill:none"/></clipPath><clipPath id="b"><rect x="1056.5" y="-1096.8" width="1000" height="1000" style="fill:none"/></clipPath></defs><path d="M173.8,91.6s-50.4,5.1-11-66.4l308.4,94.6s38.7,7.8,41.9,62.6L315.2,139.3s-74.4-17.5-96.6-52c0,0-30.5,50.1-15.7,82.5S239.1,213.3,268,152l239.1,44.7s.8,38.1-51.6,50.7l-101.1-8.9-35.3,81.7,84.7,35.5-46.5,31.9L252.6,343.7l53.1-126.6-20.4,14.5-77.9-7.5s-65-12.5-44.8-105.7Z" style="fill:#4d4d4d"/><line x1="678.1" y1="644.9" x2="664.4" y2="661" style="fill:#4d4d4d"/><path d="M706.3,670.6l2.2,16.9L748.1,723s36.3,26.8,73.6-26.3l8.2-18s20.7,27.6,38.3-25.2L678.6,542.9s-21.7-15.7-50.6,7.9L740.8,630s43.1,29.1,70.6,24.3c0,0-11,38.4-34,46s-38.5,1.9-21.2-40.8L623.6,560.4s-19.5,17.1-1.6,49.2l51.1,46.5" style="fill:#4d4d4d"/><line x1="690.8" y1="688.7" x2="707.4" y2="669.4" style="fill:#4d4d4d"/><polyline points="671.3 653 636.7 693.7 586.8 650.5 570 681 642.8 744 707.4 669.4" style="fill:#4d4d4d"/><path d="M157.1,855.5s-13.5,24.4-33.6-15.9L262.9,729.4s15.7-15,41.5.7L223,806.3s-31.3,28.2-53.9,27.5c0,0,13.2,29.5,32.5,33s31.1-2.9,12.3-35.1L309,737.2s17.6,11.6,6.8,39.3l-35.6,43.1,26,41.5,42.6-27.2,13.6,22.2L296,898.6l-40.8-63.7.2,13.9-27.8,32.9s-26,25.6-61.9-12.8Z" style="fill:#4d4d4d"/><path d="M461,381.7q-40-5.4-58.1-5.4c-12,0-20.3,1.4-25,4.2s-6.9,7.3-6.9,13.4,2.5,10.5,7.6,12.9,17.1,5.4,36,8.7,32.3,8.4,40.3,15.5,11.9,19.4,11.9,37.3-5.8,31-17.2,39.4-28.1,12.6-50.1,12.6c-13.8,0-31.2-1.9-52.3-5.8l-10.5-1.7,1.3-30.9q40.8,5.4,58.8,5.4c12,0,20.5-1.4,25.6-4.4s7.7-7.8,7.7-14.6-2.5-11.5-7.3-14.1-16.6-5.4-35-8.5-32-7.8-40.6-14.4-12.9-18.6-12.9-36,5.9-30.5,17.8-39.1,27.1-12.9,45.7-12.9c14.5,0,32.3,1.8,53.3,5.5l10.6,2Z"/><path d="M565.9,343c12,0,26.2,1.6,42.5,4.7l8.5,1.7-1.4,29.2c-17.9-1.8-31.1-2.7-39.7-2.7-17.2,0-28.8,3.9-34.7,11.6s-8.8,22.2-8.8,43.5,2.8,36,8.5,44.1,17.4,12.2,35.3,12.2l39.8-2.7,1,29.6c-22.9,4-40.1,6.1-51.7,6.1-25.8,0-43.9-7-54.5-20.9s-15.8-36.7-15.8-68.4,5.6-54.3,16.7-67.8S540.8,343,565.9,343Z"/><path d="M343.1,720.3V550.5h36.7v20.4c19.2-12.5,38.5-20.5,57.7-24.1v37c-19.4,3.9-36.1,8.8-49.9,14.9l-7.5,3.1V720.3Z"/><path d="M473.7,568.9c11.7-14.8,31.1-22.1,58.3-22.1s46.5,7.3,58.2,22.1,17.5,36.8,17.5,66.2-5.7,51.6-17,66.6-30.9,22.4-58.7,22.4-47.5-7.5-58.8-22.4-17-37.2-17-66.6S462,583.6,473.7,568.9Zm27.7,110.3c5.2,9.1,15.4,13.6,30.6,13.6s25.3-4.5,30.5-13.6,7.8-23.8,7.8-44.5-2.7-35.2-8.3-43.8S546.5,578,532,578s-24.6,4.3-30.1,12.9-8.3,23.2-8.3,43.8S496.2,670.2,501.4,679.2Z"/><path d="M352.5,772.6q17.4-22.1,58.2-22t58.3,22c11.6,14.8,17.5,36.8,17.5,66.3s-5.7,51.6-17,66.5-30.9,22.5-58.8,22.5-47.4-7.5-58.8-22.5S335,868.3,335,838.9,340.8,787.4,352.5,772.6ZM380.1,883c5.2,9.1,15.4,13.6,30.6,13.6s25.4-4.5,30.6-13.6,7.8-23.9,7.8-44.5-2.8-35.2-8.3-43.8-15.6-12.9-30.1-12.9-24.5,4.3-30.1,12.9-8.3,23.2-8.3,43.8S374.9,874,380.1,883Z"/><path d="M566.3,750.6c12,0,26.1,1.6,42.4,4.7l8.5,1.7-1.3,29.2c-17.9-1.8-31.2-2.7-39.8-2.7-17.2,0-28.7,3.9-34.6,11.6s-8.9,22.2-8.9,43.4,2.9,36,8.5,44.2,17.5,12.2,35.4,12.2l39.7-2.7,1,29.6c-22.9,4-40.1,6.1-51.6,6.1q-38.7,0-54.5-20.9c-10.6-13.9-15.8-36.8-15.8-68.5s5.5-54.2,16.6-67.7S541.1,750.6,566.3,750.6Z"/><path d="M640.1,924.1V904.6H656v19.5Z"/><path d="M689.3,901a32.5,32.5,0,0,1,5.7.6l1.1.2-.2,3.9-5.3-.3c-2.3,0-3.8.5-4.6,1.5s-1.2,3-1.2,5.8.4,4.8,1.2,5.9,2.3,1.6,4.7,1.6l5.3-.3v3.9a36.2,36.2,0,0,1-6.9.8c-3.4,0-5.8-.9-7.2-2.8s-2.1-4.9-2.1-9.1.7-7.2,2.2-9S686,901,689.3,901Z"/><path d="M706.7,903.9c1.5-1.9,4.1-2.9,7.7-2.9s6.2,1,7.8,2.9,2.3,4.9,2.3,8.9-.7,6.8-2.2,8.8-4.2,3-7.9,3-6.3-1-7.8-3-2.3-4.9-2.3-8.8S705.1,905.9,706.7,903.9Zm3.6,14.8c.7,1.2,2.1,1.8,4.1,1.8s3.4-.6,4.1-1.8,1-3.2,1-6-.3-4.7-1.1-5.8-2.1-1.7-4-1.7-3.3.5-4,1.7-1.1,3.1-1.1,5.8S709.6,917.4,710.3,918.7Z"/><path d="M738.9,924.1h-5V901.5h4.9v1.4a11.6,11.6,0,0,1,5.9-1.9c2.6,0,4.6.7,5.8,2.2a16.6,16.6,0,0,1,8.2-2.2c2.7,0,4.6.8,5.7,2.5s1.7,4.5,1.7,8.5v12.1h-4.9v-12a15.3,15.3,0,0,0-.7-5.2c-.5-1-1.6-1.5-3.2-1.5a11.8,11.8,0,0,0-4.3.9l-.8.3a29.2,29.2,0,0,1,.3,5.8v11.7h-4.8V912.5a14,14,0,0,0-.8-5.6c-.5-1-1.5-1.5-3.1-1.5a9.6,9.6,0,0,0-4.2.9l-.7.3Z"/><g style="clip-path:url(#a)"><rect x="14.1" y="-613.2" width="3015.1" height="2507.28" style="fill:none"/></g><g style="clip-path:url(#b)"><rect x="14.1" y="-1712" width="3015.1" height="2507.28" style="fill:none"/></g><path d="M204.2,86.8l33.4,121" style="fill:#ffbc36"/><path d="M196.7,88.8l33.4,121.1c2.6,9.6,17.6,5.5,15-4.2l-33.4-121c-2.7-9.6-17.7-5.6-15,4.1Z" style="fill:#ffbc36"/><path d="M174.5,166.7a237.3,237.3,0,0,1,108.4-40.9" style="fill:#ffbc36"/><path d="M178.4,173.5c31-21.5,67-35.6,104.5-39.9,4.2-.5,7.8-3.2,7.8-7.8s-3.6-8.3-7.8-7.8a247.5,247.5,0,0,0-112.3,42c-8.2,5.7-.4,19.2,7.8,13.5Z" style="fill:#ffbc36"/><path d="M809.9,666.6l-64.1,23.9c-4.6,1.7-2.6,9.2,2.1,7.4L812,674c4.6-1.7,2.6-9.1-2.1-7.4Z" style="fill:#ffbc36"/><path d="M784.9,705.4a98.5,98.5,0,0,0-7.8-54.6c-2-4.5-8.7-.6-6.6,3.8,7.2,16,9,33.5,6.7,50.8-.6,4.9,7.1,4.8,7.7,0Z" style="fill:#ffbc36"/><path d="M172.9,859.8l48.8-9.4c4.2-.9,2.4-7.3-1.8-6.4l-48.7,9.4c-4.2.8-2.4,7.2,1.7,6.4Z" style="fill:#ffbc36"/><path d="M204.4,873.4a123.5,123.5,0,0,1-9.2-51.3c.1-4.3-6.6-4.3-6.7,0a128.6,128.6,0,0,0,9.5,53.1c1.6,3.9,8,2.2,6.4-1.8Z" style="fill:#ffbc36"/></svg>