<svg xmlns="http://www.w3.org/2000/svg" viewBox="0 0 39.83 27.42"><g id="Layer_2" data-name="Layer 2"><circle cx="12.38" cy="13.71" r="2.53"/><circle cx="19.92" cy="13.71" r="2.53"/><circle cx="27.45" cy="13.71" r="2.53"/><path d="M35.06,15.92a6.1,6.1,0,0,1,6.1,6.1v7.22a6.1,6.1,0,0,1-6.1,6.1H15.43a6.1,6.1,0,0,1-6.1-6.1V22a6.1,6.1,0,0,1,6.1-6.1H35.06m0-4H15.43A10.11,10.11,0,0,0,5.33,22v7.22a10.11,10.11,0,0,0,10.1,10.1H35.06a10.11,10.11,0,0,0,10.1-10.1V22a10.11,10.11,0,0,0-10.1-10.1Z" transform="translate(-5.33 -11.92)"/></g></svg>