<svg xmlns="http://www.w3.org/2000/svg" xmlns:xlink="http://www.w3.org/1999/xlink" width="1000" height="1000" viewBox="0 0 1000 1000"><defs><clipPath id="a"><rect width="1000" height="1000" fill="none"/></clipPath></defs><g clip-path="url(#a)"><rect x="-1042.46" y="-615.23" width="3015.09" height="2507.28" fill="none"/><path d="M200.05,283.3S82.58,281,193.41,127.15L877.53,431.48s86.9,28.82,79,156L512.6,432.87S346.05,371.6,304.44,285.93c0,0-84.18,107-59.29,185.76s71.43,110.4,155-22.79L938.78,618.72S930,706.7,805.6,721.09L575,672.44,430.2,920.51,657.48,996l-57.65,54.67L247.54,998.14,468.89,609.42,417.74,637.1l-177.4-39S94.12,551,166.74,341.81Z" fill="#fff"/></g></svg>