<?xml version="1.0" encoding="utf-8"?>
<!-- Generator: Adobe Illustrator 25.1.0, SVG Export Plug-In . SVG Version: 6.00 Build 0)  -->
<svg version="1.1" id="Layer_1" xmlns="http://www.w3.org/2000/svg" xmlns:xlink="http://www.w3.org/1999/xlink" x="0px" y="0px"
	 viewBox="0 0 47.7 41" style="enable-background:new 0 0 47.7 41;" xml:space="preserve">
<path d="M33.4,6c4.6,0,8.3,3.4,8.3,8.8c0,7-10.9,15.9-15.7,19.5c-1.3,1-3.1,1-4.4,0C16.8,30.7,6,21.8,6,14.8C6,9.4,9.6,6,14.2,6
	c3.1,0.1,6.1,1.4,8.3,3.7c0.7,0.6,1.8,0.6,2.5,0C27.3,7.4,30.3,6.1,33.4,6 M33.4,0c-3.4,0-6.8,1.1-9.6,3c-2.8-1.9-6.2-3-9.6-3
	C6.1,0,0,6.4,0,14.8c0,7.1,6.1,15.3,18,24.3c3.4,2.6,8.2,2.6,11.6,0c12-9,18.1-17.2,18.1-24.3C47.7,6.4,41.5,0,33.4,0L33.4,0z"/>
</svg>
