<?xml version="1.0" encoding="utf-8"?>
<!-- Generator: Adobe Illustrator 25.1.0, SVG Export Plug-In . SVG Version: 6.00 Build 0)  -->
<svg version="1.1" id="Layer_1" xmlns="http://www.w3.org/2000/svg" xmlns:xlink="http://www.w3.org/1999/xlink" x="0px" y="0px"
	 viewBox="0 0 45.6 39.9" style="enable-background:new 0 0 45.6 39.9;" xml:space="preserve">
<style type="text/css">
	.st0{fill:none;stroke:#000000;stroke-width:3;stroke-miterlimit:10;}
	.st1{fill:none;stroke:#000000;stroke-width:5;stroke-miterlimit:10;}
	.st2{fill:none;stroke:#000000;stroke-width:2;stroke-miterlimit:10;}
</style>
<path class="st0" d="M42,56.4"/>
<path class="st0" d="M20,78.4"/>
<path class="st0" d="M32.2,45.1"/>
<path class="st0" d="M7.9,69.4"/>
<path class="st0" d="M39.7,49.9"/>
<path class="st0" d="M13.7,75.9"/>
<path class="st1" d="M37.1,63"/>
<path class="st1" d="M21.7,78.5"/>
<path class="st2" d="M33.7,72.5"/>
<path class="st2" d="M33.7,44.2"/>
<g>
	<path class="st1" d="M30.9,2.5c-2.9,0-5.8,0.9-8.2,2.6c-2.4-1.6-5.3-2.6-8.2-2.6C7.7,2.5,2.5,7.9,2.5,15.1c0,6,5.2,13,15.3,20.7
		c2.9,2.2,7,2.2,9.9,0c10.2-7.7,15.4-14.6,15.4-20.7C43.1,7.9,37.8,2.5,30.9,2.5L30.9,2.5z"/>
	<polyline class="st1" points="18.4,3.4 16.9,13.7 30.2,18.9 21.5,36.8 	"/>
</g>
</svg>
