<?xml version="1.0" encoding="utf-8"?>
<!-- Generator: Adobe Illustrator 25.1.0, SVG Export Plug-In . SVG Version: 6.00 Build 0)  -->
<svg version="1.1" id="Layer_1" xmlns="http://www.w3.org/2000/svg" xmlns:xlink="http://www.w3.org/1999/xlink" x="0px" y="0px"
	 viewBox="0 0 42.4 30" style="enable-background:new 0 0 42.4 30;" xml:space="preserve">
<style type="text/css">
	.st0{fill:#AEFF7F;}
</style>
<g id="Layer_2_1_">
	<circle cx="12.4" cy="16.3" r="2.5"/>
	<circle cx="19.9" cy="16.3" r="2.5"/>
	<circle cx="27.5" cy="16.3" r="2.5"/>
	<path d="M29.7,6.6c3.4,0,6.1,2.7,6.1,6.1v7.2c0,3.4-2.7,6.1-6.1,6.1H10.1C6.7,26,4,23.3,4,19.9l0,0v-7.2c0-3.4,2.7-6.1,6.1-6.1l0,0
		L29.7,6.6 M29.7,2.6H10.1C4.5,2.6,0,7.1,0,12.7v7.2C0,25.5,4.5,30,10.1,30h19.6c5.6,0,10.1-4.5,10.1-10.1v-7.2
		C39.8,7.1,35.3,2.6,29.7,2.6z"/>
</g>
<circle class="st0" cx="35.8" cy="6.6" r="6.6"/>
</svg>
