<?xml version="1.0" encoding="utf-8"?>
<!-- Generator: Adobe Illustrator 25.1.0, SVG Export Plug-In . SVG Version: 6.00 Build 0)  -->
<svg version="1.1" id="Layer_1" xmlns="http://www.w3.org/2000/svg" xmlns:xlink="http://www.w3.org/1999/xlink" x="0px" y="0px"
	 viewBox="0 0 45 45" style="enable-background:new 0 0 45 45;" xml:space="preserve">
<path d="M40.4,36.5l-6.8-6.8c1.3-2.4,2-5.8,2-10c0-5.4-1.1-9.3-3.4-11.7c-2.3-2.4-6.1-3.6-11.6-3.6S11.3,5.5,9,7.9
	c-2.3,2.4-3.4,6.3-3.4,11.7c0,5.4,1.1,9.3,3.2,11.8c2.2,2.5,6.1,3.7,11.8,3.7c3.6,0,6.5-0.5,8.6-1.5l7,7c1,1,2.8,1,3.8,0l0.3-0.3
	C41.5,39.3,41.5,37.6,40.4,36.5z M20.7,31.3c-4,0-6.5-0.9-7.8-2.6c-1.2-1.7-1.9-4.8-1.9-9.1s0.7-7.3,2.1-9C14.5,9,17,8.1,20.6,8.1
	c3.7,0,6.2,0.8,7.5,2.5c1.3,1.6,2,4.6,2,9c0,4.4-0.6,7.4-1.8,9.1C27.2,30.4,24.6,31.3,20.7,31.3z"/>
</svg>
