<svg xmlns="http://www.w3.org/2000/svg" viewBox="0 0 46.96 36.17"><defs><style>.cls-1{fill:none;stroke:#000;stroke-linecap:round;stroke-miterlimit:10;stroke-width:5px;}</style></defs><g id="Layer_2" data-name="Layer 2"><path d="M33.61,13.13a2.5,2.5,0,0,1,1.79.75l7.66,7.66a2.55,2.55,0,0,1,0,3.61L35.4,32.81a2.5,2.5,0,0,1-1.79.75A2.54,2.54,0,0,1,31.05,31V15.68a2.54,2.54,0,0,1,2.56-2.55m0-5h0a7.56,7.56,0,0,0-7.56,7.55V31a7.57,7.57,0,0,0,7.56,7.56,7.45,7.45,0,0,0,5.32-2.22l7.67-7.66A7.56,7.56,0,0,0,46.6,18l-7.67-7.67a7.48,7.48,0,0,0-5.31-2.21Z" transform="translate(-1.84 -8.13)"/><path class="cls-1" d="M4.34,41.79S4.16,23.34,26.9,23.34" transform="translate(-1.84 -8.13)"/></g></svg>