<svg xmlns="http://www.w3.org/2000/svg" xmlns:xlink="http://www.w3.org/1999/xlink" width="1000" height="1000" viewBox="0 0 1000 1000"><defs><clipPath id="a"><rect x="-822.04" y="1308.22" width="531.04" height="531.04" fill="none"/></clipPath></defs><rect x="247.75" y="249.02" width="500" height="500" fill="#ffbc36"/><path d="M504.31,526.37H500l-4.54-1.54,4.05-23.92-2.94,3.32-13.7,1.84s-11.68.44-11.94-16.4l.85-5.05s-8.46,2.89-4.55-11l56.85,3.9s7-.21,9.72,9.1l-35.77.52s-13.51,0-18.72-5.07c0,0-3.22,9.85.61,14.83s8,6,10.49-5.68l42.93-1.91s1.67,6.52-6.85,10.79l-18,2.84C508.37,503.82,504.41,525.56,504.31,526.37Z" fill="#fff"/><path d="M497.85,530.1l2.15-3.73,3.61-3.15,18.68,15.46-1.4-4.2,5.26-12.78s5.45-10.34,20.17-2.15l3.95,3.26s1.72-8.77,11.79,1.56l-31.8,47.28s-3.3,6.13-12.74,3.87L535,544.28s6.78-11.68,13.75-13.68c0,0-6.91-7.71-13.14-6.88s-9.22,3.9-.33,11.92l-19.81,38.14s-6.48-1.82-5.92-11.33l6.53-17C515.35,544.9,498.5,530.6,497.85,530.1Z" fill="#fff"/><path d="M497.85,522.64l2.15,3.73.93,4.71-22.73,8.45,4.33.88,8.45,11s6.22,9.89-8.23,18.54l-4.8,1.79s6.74,5.88-7.25,9.43l-25-51.18s-3.66-5.93,3-13L467,547.69s6.72,11.71,5,18.75c0,0,10.14-2.13,12.54-7.94s1.23-9.94-10.16-6.25L451.24,516s4.81-4.7,12.77.54l11.45,14.16C476.28,530.41,497.1,523,497.85,522.64Z" fill="#fff"/><path d="M504.31,526.37H500l-4.54-1.54,4.05-23.92-2.94,3.32-13.7,1.84s-11.68.44-11.94-16.4l.85-5.05s-8.46,2.89-4.55-11l56.85,3.9s7-.21,9.72,9.1l-35.77.52s-13.51,0-18.72-5.07c0,0-3.22,9.85.61,14.83s8,6,10.49-5.68l42.93-1.91s1.67,6.52-6.85,10.79l-18,2.84C508.37,503.82,504.41,525.56,504.31,526.37Z" fill="#fff"/><g clip-path="url(#a)"><rect x="-1375.64" y="981.5" width="1601.14" height="1331.47" fill="none"/></g></svg>