<svg xmlns="http://www.w3.org/2000/svg" xmlns:xlink="http://www.w3.org/1999/xlink" width="1000" height="1000" viewBox="0 0 1000 1000"><defs><clipPath id="a"><rect x="234.48" y="1308.22" width="531.04" height="531.04" fill="none"/></clipPath></defs><rect x="250" y="250" width="500" height="500" fill="#ffbc36"/><path d="M440.52,427.86s-8.9.9-1.93-11.74l54.47,16.72s6.83,1.38,7.4,11.06l-35-7.61s-13.14-3.1-17.07-9.19c0,0-5.38,8.85-2.78,14.57s6.41,7.69,11.51-3.14l42.24,7.89s.15,6.73-9.12,8.95l-17.86-1.56-6.23,14.43,15,6.27-3.39,7.65-23.31-9.77L463.82,450l-3.61,2.56-13.76-1.32s-11.48-2.22-7.91-18.69Z" fill="#fff"/><rect x="472.5" y="476.27" width="95.87" height="49.3" fill="#ffbc36"/><path d="M556,537.86s2.26,6,8.17-2.5L536,505.61s-3.07-4-9.49-1.24l16.07,20.09s6.19,7.48,11.37,8.06c0,0-4,6.29-8.51,6.44s-7-1.67-1.64-8.41l-18.58-24.69s-4.38,2.05-2.85,8.73l6.71,11-7.3,8.62L513,526.59l-3.85,4.62,13.74,11.9,11.41-13.18-.49,3.14,5.24,8.44s5.1,6.69,14.56-.87Z" fill="#fff"/><path d="M437.56,562.79s-2.37,4.32-5.92-2.79l24.62-19.47s2.77-2.66,7.34.11l-14.4,13.47s-5.52,5-9.51,4.86c0,0,2.34,5.21,5.74,5.82s5.49-.5,2.18-6.2l16.8-16.68s3.09,2,1.2,6.94l-6.3,7.61,4.59,7.34,7.53-4.82,2.41,3.93-11.73,7.51-7.2-11.25,0,2.44L450,567.43s-4.6,4.51-10.95-2.26Z" fill="#fff"/><text transform="translate(466.47 502.92)" font-size="60" font-family="TitilliumWeb-SemiBold, Titillium Web" font-weight="600">sc<tspan letter-spacing="0em"><tspan x="0" y="36">r</tspan><tspan x="21.42" y="36" letter-spacing="-0.06em">o</tspan></tspan><tspan letter-spacing="-0.06em"><tspan x="0" y="72">oc</tspan><tspan x="51.12" y="72" xml:space="preserve" font-size="24" letter-spacing="-0.06em"> . </tspan><tspan x="63.09" y="72" font-size="8" letter-spacing="-0.06em">c o m </tspan></tspan></text><g clip-path="url(#a)"><rect x="-319.11" y="981.5" width="1601.14" height="1331.47" fill="none"/></g></svg>