<svg xmlns="http://www.w3.org/2000/svg" xmlns:xlink="http://www.w3.org/1999/xlink" width="1000" height="1000" viewBox="0 0 1000 1000"><defs><clipPath id="a"><rect x="234.48" y="234.48" width="531.04" height="531.04" fill="none"/></clipPath></defs><rect x="234.48" y="234.48" width="531.04" height="531.04" fill="#ffbc36"/><g clip-path="url(#a)"><rect x="-319.11" y="-92.24" width="1601.14" height="1331.47" fill="none"/><path d="M340.71,384.92s-62.38-1.22-3.52-82.92L700.48,463.61s46.15,15.31,42,82.85L506.69,464.35s-88.44-32.54-110.54-78c0,0-44.7,56.82-31.49,98.65S402.6,543.59,447,472.86l286,90.19s-4.66,46.72-70.72,54.36L539.83,591.57l-76.9,131.74,120.7,40.09-30.62,29-187.08-27.9L483.48,558.11l-27.16,14.7L362.11,552.1S284.46,527.08,323,416Z" fill="#fff"/></g></svg>