<svg xmlns="http://www.w3.org/2000/svg" xmlns:xlink="http://www.w3.org/1999/xlink" width="1339.33" height="1025.78" viewBox="0 0 1339.33 1025.78"><defs><clipPath id="a" transform="translate(0 369.67)"><rect width="1200" height="630" fill="none"/></clipPath></defs><g clip-path="url(#a)"><rect y="369.67" width="1200" height="630" fill="#fefefe"/><path d="M637.35,656q-290.73,0-581.46.11c-4.48,0-5.49-1-5.49-5.49q.2-243.54,0-487.09c0-4.48,1-5.5,5.49-5.49q581.46.18,1162.92,0c4.48,0,5.49,1,5.49,5.49q-.19,243.54,0,487.09c0,4.48-1,5.5-5.49,5.49Q928.08,655.92,637.35,656Z" transform="translate(0 369.67)" fill="#fefefe"/><path d="M499.75,567.27q8.94-17.85,17.94-35.68c.43-.85.58-2.74,2.12-1.91.76.41-.16,1.81-.58,2.66q-9.09,18.12-18.23,36.22C499.9,568.79,499.25,568.59,499.75,567.27Z" transform="translate(0 369.67)" fill="#747474"/><path d="M625.67,504.92a8.41,8.41,0,0,1,1.17,1.44q4.18,9.2,8.31,18.41c.3.66,1.09,1.68.23,2.08-1.21.56-1.48-.8-1.86-1.61q-4.12-8.9-8.21-17.82C625,506.64,624.38,505.71,625.67,504.92Z" transform="translate(0 369.67)" fill="#767676"/><path d="M408.84,407c-4.24,6-9.68,10.86-14.34,16.45-.47.57-1.26,1.52-1.87,1-1.17-1,.19-1.71.75-2.33,4.58-5.12,8.77-10.61,14-15.12A1.13,1.13,0,0,1,408.84,407Z" transform="translate(0 369.67)" fill="#757575"/><path d="M740.22,337.92c0,1.2-1,.89-1.53.65q-8.69-3.82-17.3-7.82c-.44-.2-.68-.84-1-1.28.34-.14.77-.5,1-.4a163.35,163.35,0,0,1,18.32,8.34C739.89,337.5,740,337.69,740.22,337.92Z" transform="translate(0 369.67)" fill="#757575"/><path d="M715.09,320.79c-7.28-1.64-11.92-6.14-14.21-13.18a1.94,1.94,0,0,1,1.11-1.17,23.31,23.31,0,0,0,13.08,13C716.07,319.89,716.08,320.33,715.09,320.79Z" transform="translate(0 369.67)" fill="gray"/><path d="M409.29,404.76c2.92-4.49,7-7.95,10.43-12,.48-.58,1.19-1.54,1.81-1.06,1.18.91-.08,1.79-.62,2.38-3.35,3.58-6.21,7.62-10.12,10.66A1.29,1.29,0,0,1,409.29,404.76Z" transform="translate(0 369.67)" fill="#767676"/><path d="M1126.23,180.79c-1.3-.22-.91-1-.42-1.58q3.86-4.47,7.82-8.82c.33-.36,1.13-.71,1.44-.55.64.34.35,1,0,1.48-2.59,3-5.19,5.92-7.81,8.85A4.06,4.06,0,0,1,1126.23,180.79Z" transform="translate(0 369.67)" fill="#787878"/><path d="M755.37,223.83c-1.31,0-1-1.06-.74-1.62,1.12-2.91,1.9-6,4.22-8.32,0,0,.4.15.41.24.18,3.36-1.88,5.93-3.13,8.78A4.52,4.52,0,0,1,755.37,223.83Z" transform="translate(0 369.67)" fill="#7e7e7e"/><path d="M1003,260.66c.15,1.4-.39,1.67-1,1.48a12.69,12.69,0,0,1-2.69-1.26c-1.31-.81-3.17-1-3.64-2.79-.13-.47.85-.77,1.37-.51C999.18,258.61,1001.24,259.73,1003,260.66Z" transform="translate(0 369.67)" fill="#838383"/><path d="M127.82,238.89c.68-1.4-1-4,1.3-4.59.57-.16.3,3.13.42,4.84a6.32,6.32,0,0,1-.09,1.74c-.18.87.21,2.36-1.09,2.29s-.87-1.42-.8-2.33C127.6,240.26,127.71,239.69,127.82,238.89Z" transform="translate(0 369.67)" fill="#888"/><path d="M127.21,327c.86-3.25.49-6.75,2.06-9.85.77.06.78.8,1.11,1.25-.8,3.26-.48,6.74-2,9.84C127.55,328.23,127.55,327.46,127.21,327Z" transform="translate(0 369.67)" fill="#7e7e7e"/><path d="M993.41,359.12a6.2,6.2,0,0,1-.4,2.3c-1,1.56.53,4.76-2,4.67-1,0,0-3.52.2-5.43a12,12,0,0,1,1-2.77C993,357.92,993,358.71,993.41,359.12Z" transform="translate(0 369.67)" fill="#888"/><path d="M155.6,562.8c2.53.86,5.53.4,7.54,2.7-3,1-5.58-.39-8.27-1.22a2.42,2.42,0,0,1-.5-.31C154.41,563.2,155.19,563.18,155.6,562.8Z" transform="translate(0 369.67)" fill="#818181"/><path d="M642,376.17c2,1.2,5.14-.25,6.43,2.7-2.82.82-5.23-.45-7.67-1.53C640.78,376.53,641.52,376.5,642,376.17Z" transform="translate(0 369.67)" fill="#8a8a8a"/><path d="M132.11,367.82c1.07.56.82,1.58.72,2.48s-.38,2.2-1.61,1.72c-1-.39-.6-1.7-.49-2.63C130.82,368.61,131.06,367.86,132.11,367.82Z" transform="translate(0 369.67)" fill="#969696"/><path d="M1028.09,323.22c2.2-1.69,4.89-2.29,7.39-3.31a1.7,1.7,0,0,1,1.17,1.1c-2.19,1.72-4.9,2.28-7.39,3.33A1.71,1.71,0,0,1,1028.09,323.22Z" transform="translate(0 369.67)" fill="#868686"/><path d="M1028.29,324.63c-.14.12-.27.31-.44.37-2.06.76-3.82,2.68-6.35,1.73,1.08-2.49,3.74-2.19,5.65-3.22A1.79,1.79,0,0,1,1028.29,324.63Z" transform="translate(0 369.67)" fill="#8f8f8f"/><path d="M125.62,335.13c.16-1.63.12-3.31,1.22-4.7.43-.86.83-.85,1.22,0-.42,2.33-.84,4.65-1.27,7C124.66,337.55,125.2,336.31,125.62,335.13Z" transform="translate(0 369.67)" fill="#606060"/><path d="M790.47,260.94a7,7,0,0,1,.55,1c.41,1.25,1.24,3.41.15,3.59-1.63.26-1.7-1.92-1.93-3.35C789.66,261.78,789.68,261,790.47,260.94Z" transform="translate(0 369.67)" fill="#888"/><path d="M992.49,355.72a6.88,6.88,0,0,1,.26-1.73c.35-.81.36-2,1.61-2a4.4,4.4,0,0,1,.26,2.15,15.9,15.9,0,0,1-1,2.76C992.87,356.91,992.85,356.15,992.49,355.72Z" transform="translate(0 369.67)" fill="#7a7a7a"/><path d="M125.62,335.13l1.17,2.31c-.07,1-.7,2.4-1.43,1.8C124,338.13,125,336.49,125.62,335.13Z" transform="translate(0 369.67)" fill="#9f9f9f"/><path d="M817.87,543.23a4.41,4.41,0,0,1-1-.61c-.85-.9-2.95-2.09-2-2.84,1.4-1.08,2.23,1,3,2.21a.76.76,0,0,1,.26.83C818.06,543.09,818,543.23,817.87,543.23Z" transform="translate(0 369.67)" fill="#686868"/><path d="M826.13,549.59a6.76,6.76,0,0,1,1.44,1c.7.8,2.55,1.78,1.44,2.62s-2.19-.83-2.84-2A1.37,1.37,0,0,1,826.13,549.59Z" transform="translate(0 369.67)" fill="gray"/><path d="M152.27,563.62c-1.06-.23-2.87-.6-2.26-1.68.74-1.32,2.34-.23,3.47.48C153.61,563.35,152.73,563.27,152.27,563.62Z" transform="translate(0 369.67)" fill="#8e8e8e"/><path d="M261.07,572.35c.23-1.08.82-3,1.54-2.5,1.59,1,.33,2.51-.4,3.73C261.41,573.56,261.41,572.8,261.07,572.35Z" transform="translate(0 369.67)" fill="gray"/><path d="M1036.46,319.62c.89-.68,2-1.71,2.87-.57.49.68-.84,1.38-1.73,1.67A1.81,1.81,0,0,1,1036.46,319.62Z" transform="translate(0 369.67)" fill="#8b8b8b"/><path d="M715.09,320.79c0-.44,0-.89,0-1.33,1.31.19,2.74-.21,3.85.86C717.77,321.47,716.41,320.94,715.09,320.79Z" transform="translate(0 369.67)" fill="#424242"/><path d="M261.86,575.66c-.09.83-.64,1.87-1.28,1.56-1.54-.74-.5-1.83.05-2.76C261.55,574.33,261.49,575.21,261.86,575.66Z" transform="translate(0 369.67)" fill="#959595"/><path d="M499.75,567.27l1.25,1.29c-.47.73-.77,2.21-1.9,1.28C498.26,569.16,499.18,568.07,499.75,567.27Z" transform="translate(0 369.67)" fill="#949494"/><path d="M788.85,260.06c-.65-.73-1.28-1.79-.44-2.42,1.11-.83,1.51.27,1.71,1.23C789.73,259.31,789.88,260.31,788.85,260.06Z" transform="translate(0 369.67)" fill="#979797"/><path d="M788.85,260.06l1.27-1.19c.11.69.23,1.38.35,2.07l-1.23,1.24Z" transform="translate(0 369.67)" fill="#444"/><path d="M992.49,355.72l1.16,1.22-.24,2.18-1.23-1.23Z" transform="translate(0 369.67)" fill="#393939"/><path d="M128.06,330.46l-1.22,0c.12-1.14.25-2.28.37-3.42l1.15,1.24Z" transform="translate(0 369.67)" fill="#4d4d4d"/><path d="M152.27,563.62l1.21-1.2,2.12.38L154.37,564Z" transform="translate(0 369.67)" fill="#494949"/><path d="M261.86,575.66l-1.23-1.2.44-2.11,1.14,1.23C262.09,574.27,262,575,261.86,575.66Z" transform="translate(0 369.67)" fill="#494949"/><path d="M130.38,318.41l-1.11-1.25.95-.46Z" transform="translate(0 369.67)" fill="#5c5c5c"/><path d="M702,306.44l-1.11,1.17c-.09-.65-.45-1.38.39-1.77C701.39,305.78,701.74,306.23,702,306.44Z" transform="translate(0 369.67)" fill="#3f3f3f"/><path d="M642,376.17l-1.24,1.17C639.67,375.35,641.33,376.28,642,376.17Z" transform="translate(0 369.67)" fill="#555"/><path d="M1028.29,324.63l-1.14-1.12a2.85,2.85,0,0,1,.94-.29l1.17,1.12A2.79,2.79,0,0,1,1028.29,324.63Z" transform="translate(0 369.67)" fill="#454545"/><path d="M1036.46,319.62l1.14,1.1a2.91,2.91,0,0,1-.95.29l-1.17-1.1A2.59,2.59,0,0,1,1036.46,319.62Z" transform="translate(0 369.67)" fill="#474747"/><path d="M817.87,543.23l0-1.24,1.27,1.32-.45.4A.93.93,0,0,1,817.87,543.23Z" transform="translate(0 369.67)" fill="#545454"/><path d="M820.42,544.59a1.17,1.17,0,0,1,1.1,1.1l-.32.32a1.15,1.15,0,0,1-1.11-1.06Z" transform="translate(0 369.67)" fill="#616161"/><path d="M821.52,545.69l1.34,1.22-.4.39A1.6,1.6,0,0,1,821.2,546Z" transform="translate(0 369.67)" fill="#484848"/><path d="M822.86,546.91c.51.27,1.13.52.3,1.11a6.08,6.08,0,0,1-.7-.72Z" transform="translate(0 369.67)" fill="#525252"/><path d="M826.13,549.59l0,1.6C825.73,550.67,824.38,550.16,826.13,549.59Z" transform="translate(0 369.67)" fill="#393939"/><path d="M409.29,404.76l1.5,0-1.51,1.38-.46-.41A1.19,1.19,0,0,1,409.29,404.76Z" transform="translate(0 369.67)" fill="#484848"/><path d="M408.84,407h-1.45l1.43-1.31a2,2,0,0,1,.46.41A1.1,1.1,0,0,1,408.84,407Z" transform="translate(0 369.67)" fill="#525252"/><path d="M819.17,543.31a1.6,1.6,0,0,1,1.25,1.28l-.33.36-1.37-1.24A1.55,1.55,0,0,0,819.17,543.31Z" transform="translate(0 369.67)" fill="#474747"/><path d="M752.38-369.56q290.73,0,581.46-.11c4.48,0,5.5,1,5.49,5.5q-.19,243.54,0,487.08c0,4.49-1,5.5-5.49,5.5q-581.46-.18-1162.92,0c-4.48,0-5.49-1-5.49-5.5q.21-243.54,0-487.08c0-4.49,1-5.5,5.49-5.5Q461.65-369.47,752.38-369.56Z" transform="translate(0 369.67)" fill="#fefefe"/><path d="M890-280.83c-6,11.9-11.92,23.81-17.94,35.68-.44.85-.58,2.74-2.13,1.91-.76-.41.16-1.81.58-2.65q9.09-18.12,18.24-36.22C889.83-282.34,890.48-282.14,890-280.83Z" transform="translate(0 369.67)" fill="#747474"/><path d="M764.06-218.48a7.83,7.83,0,0,1-1.16-1.43q-4.2-9.19-8.32-18.42c-.3-.66-1.09-1.67-.23-2.07,1.21-.56,1.49.8,1.86,1.61q4.14,8.89,8.21,17.81C764.77-220.2,765.35-219.27,764.06-218.48Z" transform="translate(0 369.67)" fill="#767676"/><path d="M980.89-120.56c4.24-6,9.69-10.86,14.34-16.46.47-.57,1.26-1.51,1.87-1,1.17,1-.18,1.72-.74,2.34-4.59,5.12-8.78,10.61-14,15.12A1.16,1.16,0,0,1,980.89-120.56Z" transform="translate(0 369.67)" fill="#757575"/><path d="M649.52-51.47c0-1.2,1-.89,1.52-.66q8.69,3.84,17.3,7.82c.44.21.68.85,1,1.28-.35.15-.78.51-1,.41A163.35,163.35,0,0,1,650-51C649.84-51,649.74-51.24,649.52-51.47Z" transform="translate(0 369.67)" fill="#757575"/><path d="M674.64-34.35c7.28,1.64,11.92,6.15,14.21,13.18A1.88,1.88,0,0,1,687.74-20a23.31,23.31,0,0,0-13.08-13C673.66-33.44,673.66-33.88,674.64-34.35Z" transform="translate(0 369.67)" fill="gray"/><path d="M980.44-118.31c-2.92,4.49-7,7.94-10.42,12-.49.57-1.2,1.53-1.82,1-1.18-.91.08-1.79.62-2.37,3.35-3.58,6.21-7.62,10.12-10.66A1.26,1.26,0,0,1,980.44-118.31Z" transform="translate(0 369.67)" fill="#767676"/><path d="M263.5,105.66c1.3.21.92,1,.43,1.58q-3.85,4.47-7.83,8.82c-.33.35-1.13.71-1.44.54-.64-.33-.35-1,.05-1.48q3.87-4.44,7.8-8.84A4.26,4.26,0,0,1,263.5,105.66Z" transform="translate(0 369.67)" fill="#787878"/><path d="M634.37,62.62c1.3,0,.94,1.06.73,1.61-1.12,2.92-1.9,6-4.22,8.32,0,0-.4-.14-.4-.23-.19-3.36,1.87-5.93,3.12-8.79A4.24,4.24,0,0,1,634.37,62.62Z" transform="translate(0 369.67)" fill="#7e7e7e"/><path d="M386.72,25.79c-.15-1.4.39-1.67,1-1.48a13.16,13.16,0,0,1,2.69,1.25c1.32.81,3.17,1,3.65,2.79.12.48-.86.77-1.37.52C390.55,27.84,388.49,26.71,386.72,25.79Z" transform="translate(0 369.67)" fill="#838383"/><path d="M1261.91,47.56c-.68,1.4,1,4-1.3,4.59-.57.16-.3-3.14-.42-4.84a6.42,6.42,0,0,1,.09-1.75c.18-.86-.21-2.35,1.09-2.29s.87,1.43.8,2.33C1262.13,46.19,1262,46.76,1261.91,47.56Z" transform="translate(0 369.67)" fill="#888"/><path d="M1262.52-40.56c-.86,3.24-.49,6.75-2.06,9.84-.77-.06-.78-.79-1.11-1.25.8-3.25.48-6.73,2-9.83C1262.18-41.79,1262.18-41,1262.52-40.56Z" transform="translate(0 369.67)" fill="#7e7e7e"/><path d="M396.32-72.67a6.26,6.26,0,0,1,.4-2.31c1-1.55-.53-4.75,2-4.67,1,0,0,3.53-.2,5.43a11.58,11.58,0,0,1-1,2.78C396.76-71.47,396.74-72.27,396.32-72.67Z" transform="translate(0 369.67)" fill="#888"/><path d="M1234.13-276.35c-2.52-.86-5.52-.4-7.53-2.71,3-1,5.57.4,8.26,1.23a2.14,2.14,0,0,1,.5.3C1235.32-276.75,1234.55-276.74,1234.13-276.35Z" transform="translate(0 369.67)" fill="#818181"/><path d="M747.74-89.73c-2-1.19-5.15.25-6.44-2.7,2.82-.81,5.23.45,7.67,1.54C749-90.08,748.21-90,747.74-89.73Z" transform="translate(0 369.67)" fill="#8a8a8a"/><path d="M1257.63-81.37c-1.08-.56-.83-1.58-.73-2.48s.38-2.2,1.61-1.73c1,.4.6,1.7.49,2.63S1258.67-81.41,1257.63-81.37Z" transform="translate(0 369.67)" fill="#969696"/><path d="M361.64-36.77c-2.2,1.69-4.89,2.29-7.39,3.31a1.72,1.72,0,0,1-1.17-1.1c2.19-1.72,4.9-2.28,7.39-3.33A1.71,1.71,0,0,1,361.64-36.77Z" transform="translate(0 369.67)" fill="#868686"/><path d="M361.44-38.18c.15-.13.27-.31.44-.37,2.07-.77,3.82-2.68,6.35-1.73-1.08,2.48-3.74,2.19-5.65,3.21A1.77,1.77,0,0,1,361.44-38.18Z" transform="translate(0 369.67)" fill="#8f8f8f"/><path d="M1264.11-48.68c-.16,1.63-.12,3.31-1.22,4.69-.42.87-.83.86-1.22,0,.42-2.32.85-4.65,1.27-7C1265.07-51.11,1264.53-49.86,1264.11-48.68Z" transform="translate(0 369.67)" fill="#606060"/><path d="M599.26,25.5a6.49,6.49,0,0,1-.55-1c-.41-1.24-1.24-3.41-.15-3.58,1.64-.26,1.71,1.92,1.93,3.34C600.07,24.67,600.05,25.46,599.26,25.5Z" transform="translate(0 369.67)" fill="#888"/><path d="M397.24-69.27a7,7,0,0,1-.26,1.73c-.35.8-.36,2-1.61,2a4.42,4.42,0,0,1-.26-2.16,15.8,15.8,0,0,1,1-2.75C396.86-70.46,396.88-69.7,397.24-69.27Z" transform="translate(0 369.67)" fill="#7a7a7a"/><path d="M1264.11-48.68,1262.94-51c.07-1,.71-2.4,1.44-1.8C1265.73-51.69,1264.73-50,1264.11-48.68Z" transform="translate(0 369.67)" fill="#9f9f9f"/><path d="M571.86-256.78a4.41,4.41,0,0,1,.95.61c.85.9,3,2.09,2,2.83-1.4,1.08-2.23-1-3-2.2a.78.78,0,0,1-.26-.83C571.67-256.65,571.77-256.78,571.86-256.78Z" transform="translate(0 369.67)" fill="#686868"/><path d="M563.6-263.14a7,7,0,0,1-1.44-1c-.69-.81-2.55-1.78-1.43-2.63s2.18.84,2.84,2A1.38,1.38,0,0,1,563.6-263.14Z" transform="translate(0 369.67)" fill="gray"/><path d="M1237.46-277.17c1.07.23,2.88.6,2.27,1.68-.75,1.32-2.35.23-3.48-.48C1236.12-276.91,1237-276.83,1237.46-277.17Z" transform="translate(0 369.67)" fill="#8e8e8e"/><path d="M1128.67-285.9c-.24,1.07-.82,2.95-1.55,2.5-1.59-1-.32-2.51.4-3.73C1128.32-287.11,1128.33-286.35,1128.67-285.9Z" transform="translate(0 369.67)" fill="gray"/><path d="M353.28-33.18c-.9.68-2.06,1.72-2.88.58-.49-.69.84-1.39,1.74-1.67A1.86,1.86,0,0,1,353.28-33.18Z" transform="translate(0 369.67)" fill="#8b8b8b"/><path d="M674.64-34.35c0,.45,0,.89,0,1.34-1.31-.19-2.74.21-3.85-.86C672-35,673.32-34.49,674.64-34.35Z" transform="translate(0 369.67)" fill="#424242"/><path d="M1127.87-289.21c.09-.83.64-1.88,1.29-1.57,1.53.74.5,1.84-.06,2.77C1128.18-287.89,1128.24-288.76,1127.87-289.21Z" transform="translate(0 369.67)" fill="#959595"/><path d="M890-280.83c-.42-.42-.84-.85-1.25-1.28.46-.74.76-2.22,1.9-1.29C891.47-282.72,890.56-281.62,890-280.83Z" transform="translate(0 369.67)" fill="#949494"/><path d="M600.88,26.39c.66.73,1.28,1.79.44,2.42-1.1.83-1.51-.28-1.71-1.23C600,27.14,599.85,26.14,600.88,26.39Z" transform="translate(0 369.67)" fill="#979797"/><path d="M600.88,26.39l-1.27,1.19c-.11-.7-.23-1.39-.35-2.08l1.23-1.24Z" transform="translate(0 369.67)" fill="#444"/><path d="M397.24-69.27c-.38-.41-.77-.82-1.16-1.22l.24-2.18,1.23,1.23Z" transform="translate(0 369.67)" fill="#393939"/><path d="M1261.67-44l1.22,0c-.12,1.14-.24,2.29-.37,3.43-.38-.42-.76-.83-1.15-1.24Z" transform="translate(0 369.67)" fill="#4d4d4d"/><path d="M1237.46-277.17l-1.21,1.2-2.12-.38,1.23-1.18Z" transform="translate(0 369.67)" fill="#494949"/><path d="M1127.87-289.21l1.23,1.2-.43,2.11-1.15-1.23C1127.64-287.83,1127.76-288.52,1127.87-289.21Z" transform="translate(0 369.67)" fill="#494949"/><path d="M1259.35-32l1.11,1.25-1,.46Z" transform="translate(0 369.67)" fill="#5c5c5c"/><path d="M687.74-20l1.11-1.18c.09.65.45,1.39-.39,1.78C688.34-19.33,688-19.78,687.74-20Z" transform="translate(0 369.67)" fill="#3f3f3f"/><path d="M747.74-89.73,749-90.89C750.06-88.9,748.41-89.84,747.74-89.73Z" transform="translate(0 369.67)" fill="#555"/><path d="M361.44-38.18l1.14,1.11a2.87,2.87,0,0,1-.94.3l-1.17-1.12A2.59,2.59,0,0,1,361.44-38.18Z" transform="translate(0 369.67)" fill="#454545"/><path d="M353.28-33.18l-1.14-1.09a2.57,2.57,0,0,1,.94-.29l1.17,1.1A2.58,2.58,0,0,1,353.28-33.18Z" transform="translate(0 369.67)" fill="#474747"/><path d="M571.86-256.78l0,1.24-1.27-1.33.45-.4A1,1,0,0,1,571.86-256.78Z" transform="translate(0 369.67)" fill="#545454"/><path d="M569.31-258.15a1.17,1.17,0,0,1-1.1-1.09l.32-.32a1.15,1.15,0,0,1,1.11,1.05Z" transform="translate(0 369.67)" fill="#616161"/><path d="M568.21-259.24l-1.34-1.22.4-.39a1.59,1.59,0,0,1,1.26,1.29Z" transform="translate(0 369.67)" fill="#484848"/><path d="M566.87-260.46c-.51-.27-1.13-.52-.3-1.12a6.47,6.47,0,0,1,.7.73Z" transform="translate(0 369.67)" fill="#525252"/><path d="M563.6-263.14l0-1.61C564-264.22,565.36-263.72,563.6-263.14Z" transform="translate(0 369.67)" fill="#393939"/><path d="M980.44-118.31l-1.5,0,1.51-1.38.46.41A1.19,1.19,0,0,1,980.44-118.31Z" transform="translate(0 369.67)" fill="#484848"/><path d="M980.89-120.56h1.45l-1.43,1.31a2.55,2.55,0,0,1-.46-.41A1.07,1.07,0,0,1,980.89-120.56Z" transform="translate(0 369.67)" fill="#525252"/><path d="M570.56-256.87a1.6,1.6,0,0,1-1.25-1.28l.33-.36,1.37,1.24A1.9,1.9,0,0,0,570.56-256.87Z" transform="translate(0 369.67)" fill="#474747"/><path d="M485.75,132.53s-22.5,2.28-4.9-29.69l137.78,42.28s17.27,3.49,18.72,28l-88.41-19.25s-33.25-7.84-43.19-23.24c0,0-13.6,22.4-7,36.87s16.21,19.43,29.09-7.95l106.86,19.95s.36,17-23.07,22.65l-45.19-3.95-15.75,36.49,37.85,15.86-20.8,14.23L521,245.17l23.71-56.57-9.13,6.48-34.8-3.34s-29-5.61-20-47.26Z" transform="translate(0 369.67)" fill="#4d4d4d"/><path d="M779.87,410.76s5.72,15.22,20.68-6.33l-71.23-75.25s-7.76-10-24-3.12L746,376.86s15.67,18.91,28.77,20.4c0,0-10.09,15.91-21.51,16.29s-17.7-4.23-4.17-21.28l-47-62.45S691,335,694.84,351.91l17,27.85-18.46,21.8L671,382.24l-7.53,13.61L696.06,424l28.87-33.34-1.26,7.95L736.94,420s12.89,16.91,36.83-2.2Z" transform="translate(0 369.67)" fill="#4d4d4d"/><path d="M478.26,473.82s-6,10.92-15-7.07l62.29-49.23s7-6.74,18.55.27l-36.41,34.06s-14,12.62-24,12.3c0,0,5.9,13.18,14.51,14.72s13.89-1.26,5.51-15.67L546.17,421s7.83,5.16,3.05,17.55L533.28,457.8l11.61,18.56,19-12.19,6.09,9.94-29.66,19-18.23-28.45.08,6.16L509.8,485.56s-11.63,11.4-27.68-5.72Z" transform="translate(0 369.67)" fill="#4d4d4d"/><path d="M614.06,262.15q-17.91-2.43-25.95-2.43T577,261.62a6.5,6.5,0,0,0-3.11,6,5.91,5.91,0,0,0,3.42,5.77q3.4,1.67,16.08,3.87t18,6.9q5.31,4.71,5.31,16.69T609,318.45q-7.66,5.61-22.39,5.61a134.74,134.74,0,0,1-23.37-2.58l-4.7-.75.6-13.81q18.21,2.43,26.26,2.42t11.45-2q3.42-2,3.42-6.53T597,294.55q-3.27-1.76-15.63-3.8t-18.14-6.45q-5.78-4.4-5.77-16.08t8-17.46q8-5.76,20.41-5.76a144.41,144.41,0,0,1,23.83,2.43l4.7.91Z" transform="translate(0 369.67)"/><path d="M661,244.85a100.94,100.94,0,0,1,19,2.12l3.8.76-.61,13q-12-1.21-17.76-1.21-11.54,0-15.48,5.16t-3.94,19.42q0,14.27,3.79,19.73t15.78,5.46l17.76-1.21.46,13.2q-15.33,2.73-23.07,2.73-17.31,0-24.36-9.33t-7.06-30.58q0-21.24,7.44-30.27T661,244.85Z" transform="translate(0 369.67)"/><path d="M561.4,413.45V337.57h16.39v9.11a72.07,72.07,0,0,1,25.8-10.78v16.54a106.58,106.58,0,0,0-22.31,6.68l-3.34,1.37v53Z" transform="translate(0 369.67)"/><path d="M619.75,345.76q7.82-9.86,26-9.86t26,9.86q7.82,9.87,7.82,29.6T672,405.1q-7.59,10-26.25,10t-26.26-10q-7.59-10-7.59-29.74T619.75,345.76Zm12.37,49.33q3.48,6.06,13.66,6.07t13.65-6.07q3.5-6.07,3.5-19.88t-3.72-19.58q-3.72-5.76-13.43-5.77t-13.43,5.77q-3.72,5.78-3.72,19.58T632.12,395.09Z" transform="translate(0 369.67)"/><path d="M565.57,436.82q7.81-9.85,26-9.86t26,9.86q7.8,9.87,7.81,29.59t-7.59,29.75q-7.59,10-26.25,10t-26.25-10q-7.61-10-7.59-29.75T565.57,436.82Zm12.37,49.32q3.49,6.08,13.66,6.07t13.66-6.07q3.48-6.06,3.49-19.88T605,446.68q-3.72-5.76-13.43-5.76t-13.43,5.76q-3.72,5.77-3.72,19.58T577.94,486.14Z" transform="translate(0 369.67)"/><path d="M661.1,427a101.88,101.88,0,0,1,19,2.12l3.79.76-.61,13.05q-12-1.22-17.75-1.21-11.53,0-15.48,5.16t-3.95,19.42q0,14.26,3.8,19.73t15.78,5.46l17.75-1.21.46,13.2q-15.33,2.73-23.07,2.73-17.29,0-24.36-9.33t-7.05-30.58q0-21.24,7.43-30.27T661.1,427Z" transform="translate(0 369.67)"/><path d="M694.09,504.5v-8.74h7.11v8.74Z" transform="translate(0 369.67)"/><path d="M716.09,494.17a13.42,13.42,0,0,1,2.53.28l.5.1-.08,1.74c-1.06-.11-1.85-.16-2.37-.16a2.48,2.48,0,0,0-2.06.69,4.5,4.5,0,0,0-.53,2.59,4.89,4.89,0,0,0,.51,2.63,2.45,2.45,0,0,0,2.1.72l2.37-.16.06,1.76a18.58,18.58,0,0,1-3.07.37,3.83,3.83,0,0,1-3.25-1.25,6.84,6.84,0,0,1-.94-4.07,6.41,6.41,0,0,1,1-4A4,4,0,0,1,716.09,494.17Z" transform="translate(0 369.67)"/><path d="M723.83,495.48a5.25,5.25,0,0,1,6.94,0,6.32,6.32,0,0,1,1,3.95,6.53,6.53,0,0,1-1,4,5.24,5.24,0,0,1-7,0,6.46,6.46,0,0,1-1-4A6.25,6.25,0,0,1,723.83,495.48Zm1.65,6.58a2.45,2.45,0,0,0,3.64,0,5.63,5.63,0,0,0,.46-2.65,5.06,5.06,0,0,0-.49-2.61,2.47,2.47,0,0,0-3.58,0,4.94,4.94,0,0,0-.5,2.61A5.61,5.61,0,0,0,725.48,502.06Z" transform="translate(0 369.67)"/><path d="M738.22,504.5H736V494.39h2.18V495a5.32,5.32,0,0,1,2.63-.84,3.12,3.12,0,0,1,2.57,1,7.7,7.7,0,0,1,3.67-1,2.83,2.83,0,0,1,2.56,1.12,7.12,7.12,0,0,1,.75,3.79v5.42H748.2v-5.36a5.57,5.57,0,0,0-.34-2.32,1.37,1.37,0,0,0-1.38-.69,5.44,5.44,0,0,0-2,.4l-.35.14a10.93,10.93,0,0,1,.16,2.59v5.24h-2.18v-5.2a6.34,6.34,0,0,0-.33-2.48,1.38,1.38,0,0,0-1.41-.69,4.37,4.37,0,0,0-1.88.4l-.31.12Z" transform="translate(0 369.67)"/></g></svg>