<svg xmlns="http://www.w3.org/2000/svg" xmlns:xlink="http://www.w3.org/1999/xlink" width="498.32" height="499.06" viewBox="0 0 498.32 499.06"><defs><clipPath id="a"><rect x="-0.69" y="-0.36" width="500" height="500" fill="none"/></clipPath><clipPath id="b"><rect x="-157.69" y="-0.36" width="876" height="500" fill="none"/></clipPath></defs><g clip-path="url(#a)"><rect x="-36.69" y="-50.36" width="649" height="154" fill="#fff"/><path d="M107.26,521.53q-290.73,0-581.46.11c-4.48,0-5.49-1-5.49-5.51q.19-244.48,0-489c0-4.5,1-5.52,5.49-5.52q581.46.2,1162.92,0c4.48,0,5.49,1,5.49,5.52q-.19,244.49,0,489c0,4.5-1,5.52-5.49,5.51Q398,521.44,107.26,521.53Z" fill="#fefefe"/><path d="M95.58,369.87a7.85,7.85,0,0,1,1.16,1.44q4.2,9.22,8.32,18.49c.3.66,1.09,1.68.23,2.08-1.21.56-1.49-.8-1.86-1.62q-4.14-8.92-8.21-17.88C94.87,371.6,94.29,370.66,95.58,369.87Z" fill="#767676"/><path d="M210.12,202.22c0,1.2-1,.89-1.52.66Q199.92,199,191.3,195c-.44-.21-.68-.85-1-1.29.35-.14.78-.51,1-.41a161.84,161.84,0,0,1,18.32,8.38C209.8,201.8,209.9,202,210.12,202.22Z" fill="#757575"/><path d="M185,185c-7.28-1.65-11.92-6.17-14.21-13.23a1.88,1.88,0,0,1,1.11-1.18A23.37,23.37,0,0,0,185,183.69C186,184.12,186,184.57,185,185Z" fill="gray"/><path d="M225.27,87.69c-1.3,0-.94-1.06-.73-1.62,1.12-2.93,1.9-6,4.22-8.35,0,0,.4.14.4.23.19,3.38-1.87,6-3.12,8.82A4.28,4.28,0,0,1,225.27,87.69Z" fill="#7e7e7e"/><path d="M472.92,124.66c.15,1.41-.39,1.68-1,1.49a12.69,12.69,0,0,1-2.69-1.26c-1.32-.82-3.17-1-3.65-2.8-.12-.48.86-.77,1.37-.52C469.09,122.61,471.15,123.73,472.92,124.66Z" fill="#838383"/><path d="M463.32,223.5a6.31,6.31,0,0,1-.4,2.32c-1,1.55.53,4.77-2,4.69-1,0,0-3.55.2-5.46a11.58,11.58,0,0,1,1-2.78C462.88,222.3,462.9,223.1,463.32,223.5Z" fill="#888"/><path d="M111.9,240.62c2,1.2,5.15-.25,6.44,2.71-2.82.82-5.23-.45-7.67-1.54C110.69,241,111.43,241,111.9,240.62Z" fill="#8a8a8a"/><path d="M498,187.46c2.2-1.69,4.89-2.29,7.39-3.32a1.72,1.72,0,0,1,1.17,1.1c-2.19,1.74-4.9,2.29-7.39,3.35A1.72,1.72,0,0,1,498,187.46Z" fill="#868686"/><path d="M498.2,188.88c-.15.13-.27.31-.44.37-2.07.77-3.82,2.69-6.35,1.74,1.08-2.5,3.74-2.2,5.65-3.23A1.79,1.79,0,0,1,498.2,188.88Z" fill="#8f8f8f"/><path d="M260.38,125a7,7,0,0,1,.55,1c.41,1.25,1.24,3.43.15,3.6-1.64.26-1.71-1.92-1.93-3.35C259.57,125.79,259.59,125,260.38,125Z" fill="#888"/><path d="M462.4,220.09a7,7,0,0,1,.26-1.74c.35-.8.36-2,1.61-2a4.4,4.4,0,0,1,.26,2.16,16,16,0,0,1-1,2.77C462.78,221.28,462.76,220.52,462.4,220.09Z" fill="#7a7a7a"/><path d="M287.78,408.32a4.41,4.41,0,0,1-.95-.61c-.85-.9-2.95-2.1-2-2.85,1.4-1.08,2.23,1,3,2.22a.78.78,0,0,1,.26.83C288,408.19,287.87,408.32,287.78,408.32Z" fill="#686868"/><path d="M296,414.71a6.76,6.76,0,0,1,1.44,1c.69.81,2.55,1.79,1.43,2.64s-2.18-.84-2.84-2A1.38,1.38,0,0,1,296,414.71Z" fill="gray"/><path d="M185,185c0-.45,0-.89,0-1.34,1.31.19,2.74-.21,3.85.86C187.68,185.71,186.32,185.18,185,185Z" fill="#424242"/><path d="M258.76,124.06c-.66-.73-1.28-1.79-.44-2.43,1.1-.83,1.51.28,1.71,1.24C259.64,123.31,259.79,124.31,258.76,124.06Z" fill="#979797"/><path d="M258.76,124.06l1.27-1.19c.11.69.23,1.38.35,2.08l-1.23,1.25Z" fill="#444"/><path d="M462.4,220.09l1.16,1.23-.24,2.18-1.23-1.23Z" fill="#393939"/><path d="M171.9,170.62l-1.11,1.18c-.09-.65-.45-1.39.39-1.78C171.3,170,171.65,170.41,171.9,170.62Z" fill="#3f3f3f"/><path d="M111.9,240.62l-1.23,1.17C109.58,239.79,111.23,240.74,111.9,240.62Z" fill="#555"/><path d="M498.2,188.88l-1.14-1.12a3.13,3.13,0,0,1,.94-.3l1.17,1.13A2.79,2.79,0,0,1,498.2,188.88Z" fill="#454545"/><path d="M287.78,408.32l0-1.24,1.27,1.33-.45.4A.93.93,0,0,1,287.78,408.32Z" fill="#545454"/><path d="M290.33,409.69a1.18,1.18,0,0,1,1.1,1.11l-.32.32a1.16,1.16,0,0,1-1.11-1.06Z" fill="#616161"/><path d="M291.43,410.8l1.34,1.22-.4.39a1.59,1.59,0,0,1-1.26-1.3Z" fill="#484848"/><path d="M292.77,412c.51.27,1.13.52.3,1.12a7.54,7.54,0,0,1-.7-.73Z" fill="#525252"/><path d="M296,414.71l0,1.61C295.64,415.79,294.28,415.28,296,414.71Z" fill="#393939"/><path d="M289.08,408.41a1.61,1.61,0,0,1,1.25,1.28l-.33.36c-.46-.41-.92-.82-1.37-1.24A1.71,1.71,0,0,0,289.08,408.41Z" fill="#474747"/><g clip-path="url(#b)"><line x1="-193.59" y1="887.12" x2="1480.2" y2="-68.24" fill="none" stroke="#000" stroke-miterlimit="10" opacity="0.57"/><line x1="-1362.75" y1="260.79" x2="311.03" y2="-694.57" fill="none" stroke="#000" stroke-miterlimit="10" opacity="0.57"/><line x1="-1217.05" y1="343.95" x2="456.73" y2="-611.4" fill="none" stroke="#000" stroke-miterlimit="10" opacity="0.57"/><line x1="-1071.35" y1="427.12" x2="602.44" y2="-528.24" fill="none" stroke="#000" stroke-miterlimit="10" opacity="0.57"/><line x1="-925.65" y1="510.28" x2="748.14" y2="-445.08" fill="none" stroke="#000" stroke-miterlimit="10" opacity="0.57"/><line x1="-779.95" y1="593.44" x2="893.84" y2="-361.91" fill="none" stroke="#000" stroke-miterlimit="10" opacity="0.57"/><line x1="-632.47" y1="677.62" x2="1041.32" y2="-277.74" fill="none" stroke="#000" stroke-miterlimit="10" opacity="0.57"/><line x1="-484.99" y1="761.8" x2="1188.79" y2="-193.56" fill="none" stroke="#000" stroke-miterlimit="10" opacity="0.57"/><line x1="-339.29" y1="844.96" x2="1334.49" y2="-110.4" fill="none" stroke="#000" stroke-miterlimit="10" opacity="0.57"/><line x1="-47.89" y1="1011.28" x2="1625.9" y2="55.93" fill="none" stroke="#000" stroke-miterlimit="10" opacity="0.57"/><line x1="97.81" y1="1094.45" x2="1771.6" y2="139.09" fill="none" stroke="#000" stroke-miterlimit="10" opacity="0.57"/><line x1="245.29" y1="1178.62" x2="1919.08" y2="223.27" fill="none" stroke="#000" stroke-miterlimit="10" opacity="0.57"/></g><text transform="translate(193.99 246.59)" font-size="36" font-family="TitilliumWeb-SemiBold, Titillium Web" font-weight="600">sc<tspan x="32.8" y="0" letter-spacing="0em">r</tspan><tspan x="45.65" y="0" letter-spacing="0em">ooc</tspan></text><path d="M187.35,269.75v3.84q0,.56.87.66l-.05.89a2.39,2.39,0,0,1-1.78-.6,6.61,6.61,0,0,1-2.71.6,2,2,0,0,1-1.57-.59,2.39,2.39,0,0,1-.54-1.68,2.13,2.13,0,0,1,.55-1.61,2.94,2.94,0,0,1,1.75-.64l2.35-.22v-.65a1.5,1.5,0,0,0-.33-1.09,1.22,1.22,0,0,0-.9-.33,21.57,21.57,0,0,0-2.49.15l-.47,0,0-.85a15.15,15.15,0,0,1,2.92-.34,2.1,2.1,0,0,1,2.44,2.42Zm-4.63,3.06c0,.92.38,1.38,1.15,1.38a6,6,0,0,0,2-.34l.35-.12v-2.48l-2.22.21a1.41,1.41,0,0,0-1,.39A1.38,1.38,0,0,0,182.72,272.81Z"/><path d="M192.19,275h-1.13v-7.5h1.11V268a4.82,4.82,0,0,1,2.33-.68,2.23,2.23,0,0,1,2,.82A5.79,5.79,0,0,1,197,271v4h-1.11v-3.93a5.18,5.18,0,0,0-.3-2.14,1.36,1.36,0,0,0-1.32-.58,4.15,4.15,0,0,0-1,.14,5.83,5.83,0,0,0-.82.28l-.28.14Z"/><path d="M200.29,271.22a4.76,4.76,0,0,1,.73-3,3,3,0,0,1,2.49-.92,3,3,0,0,1,2.47.92,4.76,4.76,0,0,1,.73,3,5.11,5.11,0,0,1-.69,3,3.88,3.88,0,0,1-5,0A5.11,5.11,0,0,1,200.29,271.22Zm1.15,0a4.84,4.84,0,0,0,.4,2.3,1.81,1.81,0,0,0,1.67.66,1.79,1.79,0,0,0,1.65-.65,4.83,4.83,0,0,0,.39-2.3,4.28,4.28,0,0,0-.43-2.28,2.41,2.41,0,0,0-3.23,0A4.11,4.11,0,0,0,201.44,271.2Z"/><path d="M211.16,275H210v-7.5h1.11V268a4.79,4.79,0,0,1,2.32-.68,2.22,2.22,0,0,1,2,.82A5.66,5.66,0,0,1,216,271v4H214.9v-3.93a5,5,0,0,0-.31-2.14c-.2-.39-.64-.58-1.31-.58a4.09,4.09,0,0,0-1,.14,5.4,5.4,0,0,0-.82.28l-.29.14Z"/><path d="M229.28,275V264.22h1.13V275Z"/><path d="M234.16,265.79v-1.3h1.12v1.3Zm0,9.2v-7.5h1.12V275Z"/><path d="M241.84,278.51a4.62,4.62,0,0,1-2.51-.49,2,2,0,0,1-.72-1.77,1.67,1.67,0,0,1,.27-1,4.12,4.12,0,0,1,.92-.86,1.17,1.17,0,0,1-.42-1,2.52,2.52,0,0,1,.37-.94l.14-.24a2.24,2.24,0,0,1-1.19-2.27c0-1.71.94-2.57,2.81-2.57a5.57,5.57,0,0,1,1.33.16l.23,0,2.22-.06v1l-1.43,0a2,2,0,0,1,.5,1.5,2.38,2.38,0,0,1-.7,2,3.45,3.45,0,0,1-2.2.57,4.07,4.07,0,0,1-.73-.06,3.13,3.13,0,0,0-.27.85c0,.31.09.5.28.58a7.54,7.54,0,0,0,1.73.11,3.65,3.65,0,0,1,2.07.45,2,2,0,0,1,.63,1.76C245.17,277.72,244.06,278.51,241.84,278.51Zm-2.12-2.35a1.24,1.24,0,0,0,.45,1.1,3.09,3.09,0,0,0,1.63.31,3.29,3.29,0,0,0,1.71-.33,1.21,1.21,0,0,0,.52-1.11c0-.51-.13-.84-.38-1a3.19,3.19,0,0,0-1.47-.23l-1.62-.08a2.68,2.68,0,0,0-.66.64A1.22,1.22,0,0,0,239.72,276.16Zm.11-6.26a1.66,1.66,0,0,0,.4,1.26,1.86,1.86,0,0,0,1.31.38,1.84,1.84,0,0,0,1.3-.38,2.25,2.25,0,0,0,0-2.53,1.84,1.84,0,0,0-1.3-.38,1.86,1.86,0,0,0-1.31.38A1.7,1.7,0,0,0,239.83,269.9Z"/><path d="M249.28,275h-1.13V264.22h1.13v3.69a5.4,5.4,0,0,1,2.31-.58,2.23,2.23,0,0,1,2,.82,5.79,5.79,0,0,1,.51,2.88v4H253v-3.93a5,5,0,0,0-.31-2.14,1.32,1.32,0,0,0-1.3-.58,5,5,0,0,0-1.83.35l-.28.1Z"/><path d="M261.55,268.46h-2.39V272a4.94,4.94,0,0,0,.19,1.7c.13.27.42.41.89.41l1.34-.09.07.93a10.11,10.11,0,0,1-1.53.16,2,2,0,0,1-1.62-.57,3.7,3.7,0,0,1-.45-2.17v-4H257v-1h1.06v-2.3h1.11v2.3h2.39Z"/><path d="M276.38,268.34c-1.09,0-1.63.38-1.63,1.14a.78.78,0,0,0,.37.74,6,6,0,0,0,1.71.45,4.61,4.61,0,0,1,1.89.66,1.86,1.86,0,0,1,.56,1.57,2,2,0,0,1-.74,1.7,3.68,3.68,0,0,1-2.17.54,13.57,13.57,0,0,1-2.19-.21l-.45-.08.06-1a18.93,18.93,0,0,0,2.58.25,2.56,2.56,0,0,0,1.33-.28,1,1,0,0,0,.45-.93.93.93,0,0,0-.39-.88,5.63,5.63,0,0,0-1.71-.44,4.48,4.48,0,0,1-1.87-.62,1.75,1.75,0,0,1-.56-1.5,1.82,1.82,0,0,1,.78-1.62,3.32,3.32,0,0,1,1.92-.53,17.39,17.39,0,0,1,2.3.21l.42.08,0,1A19.58,19.58,0,0,0,276.38,268.34Z"/><path d="M282.17,271.22a4.76,4.76,0,0,1,.74-3,3.8,3.8,0,0,1,5,0,4.84,4.84,0,0,1,.72,3,5.11,5.11,0,0,1-.69,3,3.88,3.88,0,0,1-5,0A5.11,5.11,0,0,1,282.17,271.22Zm1.16,0a4.71,4.71,0,0,0,.4,2.3,2.43,2.43,0,0,0,3.32,0,4.83,4.83,0,0,0,.39-2.3,4.26,4.26,0,0,0-.44-2.28,1.84,1.84,0,0,0-1.61-.62,1.89,1.89,0,0,0-1.62.62A4.22,4.22,0,0,0,283.33,271.2Z"/><path d="M294.73,267.33a13.51,13.51,0,0,1,1.68.19l.36,0,0,.92c-.8-.09-1.39-.14-1.77-.14a2,2,0,0,0-1.73.61,4,4,0,0,0-.46,2.25,4.47,4.47,0,0,0,.43,2.29,2,2,0,0,0,1.78.64l1.77-.13,0,.93a15.37,15.37,0,0,1-2.08.21,2.86,2.86,0,0,1-2.42-.9,5.22,5.22,0,0,1-.67-3,4.74,4.74,0,0,1,.72-3A3,3,0,0,1,294.73,267.33Z"/><path d="M300,265.79v-1.3h1.13v1.3Zm0,9.2v-7.5h1.13V275Z"/><path d="M310,269.75v3.84q0,.56.87.66l0,.89a2.44,2.44,0,0,1-1.79-.6,6.6,6.6,0,0,1-2.7.6,2,2,0,0,1-1.57-.59,2.39,2.39,0,0,1-.54-1.68,2.09,2.09,0,0,1,.55-1.61,2.91,2.91,0,0,1,1.74-.64l2.36-.22v-.65a1.5,1.5,0,0,0-.33-1.09,1.22,1.22,0,0,0-.9-.33,21.57,21.57,0,0,0-2.49.15l-.47,0,0-.85a15.15,15.15,0,0,1,2.92-.34,2.09,2.09,0,0,1,2.43,2.42Zm-4.62,3.06q0,1.38,1.14,1.38a6.06,6.06,0,0,0,2-.34l.35-.12v-2.48l-2.22.21a1.46,1.46,0,0,0-1,.39A1.38,1.38,0,0,0,305.42,272.81Z"/><path d="M313.85,275V264.22H315V275Z"/><path d="M181,276.63v-.44H317.65v.44Z"/></g></svg>